<svg xmlns="http://www.w3.org/2000/svg" width="1238" height="336" viewBox="0 0 1238 336" font-family="ui-monospace,SFMono-Regular,Menlo,monospace" role="img" aria-label="RedBlueSkills coverage heatmap">
<style>
:root{--bg:#ffffff;--fg:#1f2328;--muted:#656d76;--grid:#d0d7de;--empty:#eef1f4;--some:#ffd8a8;--part:#a5d8ff;--full:#69db7c;}
@media (prefers-color-scheme:dark){:root{--bg:#0d1117;--fg:#e6edf3;--muted:#8b949e;--grid:#30363d;--empty:#161b22;--some:#7a4b12;--part:#1f4d7a;--full:#1a7f37;}}
.t{fill:var(--fg);} .m{fill:var(--muted);} .n{fill:var(--fg);font-weight:700;}
</style>
<rect width="1238" height="336" fill="var(--bg)"/>
<text x="16" y="30" class="n" font-size="15">RedBlueSkills coverage</text>
<text x="16" y="50" class="m" font-size="11">134 skills · 71 validated · 67 red↔blue pairs · 7 surfaces</text>
<text x="169" y="88" class="m" font-size="10" text-anchor="start" transform="rotate(-45 169 88)">recon</text>
<text x="243" y="88" class="m" font-size="10" text-anchor="start" transform="rotate(-45 243 88)">initial-access</text>
<text x="317" y="88" class="m" font-size="10" text-anchor="start" transform="rotate(-45 317 88)">execution</text>
<text x="391" y="88" class="m" font-size="10" text-anchor="start" transform="rotate(-45 391 88)">persistence</text>
<text x="465" y="88" class="m" font-size="10" text-anchor="start" transform="rotate(-45 465 88)">privilege-escalation</text>
<text x="539" y="88" class="m" font-size="10" text-anchor="start" transform="rotate(-45 539 88)">defense-evasion</text>
<text x="613" y="88" class="m" font-size="10" text-anchor="start" transform="rotate(-45 613 88)">credential-access</text>
<text x="687" y="88" class="m" font-size="10" text-anchor="start" transform="rotate(-45 687 88)">lateral-movement</text>
<text x="761" y="88" class="m" font-size="10" text-anchor="start" transform="rotate(-45 761 88)">collection</text>
<text x="835" y="88" class="m" font-size="10" text-anchor="start" transform="rotate(-45 835 88)">exfiltration</text>
<text x="909" y="88" class="m" font-size="10" text-anchor="start" transform="rotate(-45 909 88)">impact</text>
<text x="983" y="88" class="m" font-size="10" text-anchor="start" transform="rotate(-45 983 88)">harden</text>
<text x="1057" y="88" class="m" font-size="10" text-anchor="start" transform="rotate(-45 1057 88)">detect</text>
<text x="1131" y="88" class="m" font-size="10" text-anchor="start" transform="rotate(-45 1131 88)">hunt</text>
<text x="122" y="115" class="t" font-size="11" text-anchor="end">web-app</text>
<rect x="132" y="96" width="71" height="27" rx="3" fill="var(--full)" stroke="var(--grid)" stroke-width="0.5"/>
<text x="168" y="115" class="t" font-size="11" text-anchor="middle">1</text>
<rect x="206" y="96" width="71" height="27" rx="3" fill="var(--full)" stroke="var(--grid)" stroke-width="0.5"/>
<text x="242" y="115" class="t" font-size="11" text-anchor="middle">7</text>
<rect x="280" y="96" width="71" height="27" rx="3" fill="var(--full)" stroke="var(--grid)" stroke-width="0.5"/>
<text x="316" y="115" class="t" font-size="11" text-anchor="middle">1</text>
<rect x="354" y="96" width="71" height="27" rx="3" fill="var(--empty)" stroke="var(--grid)" stroke-width="0.5"/>
<rect x="428" y="96" width="71" height="27" rx="3" fill="var(--full)" stroke="var(--grid)" stroke-width="0.5"/>
<text x="464" y="115" class="t" font-size="11" text-anchor="middle">1</text>
<rect x="502" y="96" width="71" height="27" rx="3" fill="var(--empty)" stroke="var(--grid)" stroke-width="0.5"/>
<rect x="576" y="96" width="71" height="27" rx="3" fill="var(--full)" stroke="var(--grid)" stroke-width="0.5"/>
<text x="612" y="115" class="t" font-size="11" text-anchor="middle">1</text>
<rect x="650" y="96" width="71" height="27" rx="3" fill="var(--empty)" stroke="var(--grid)" stroke-width="0.5"/>
<rect x="724" y="96" width="71" height="27" rx="3" fill="var(--empty)" stroke="var(--grid)" stroke-width="0.5"/>
<rect x="798" y="96" width="71" height="27" rx="3" fill="var(--empty)" stroke="var(--grid)" stroke-width="0.5"/>
<rect x="872" y="96" width="71" height="27" rx="3" fill="var(--empty)" stroke="var(--grid)" stroke-width="0.5"/>
<rect x="946" y="96" width="71" height="27" rx="3" fill="var(--full)" stroke="var(--grid)" stroke-width="0.5"/>
<text x="982" y="115" class="t" font-size="11" text-anchor="middle">6</text>
<rect x="1020" y="96" width="71" height="27" rx="3" fill="var(--full)" stroke="var(--grid)" stroke-width="0.5"/>
<text x="1056" y="115" class="t" font-size="11" text-anchor="middle">5</text>
<rect x="1094" y="96" width="71" height="27" rx="3" fill="var(--empty)" stroke="var(--grid)" stroke-width="0.5"/>
<text x="1174" y="115" class="n" font-size="11">22</text>
<text x="122" y="145" class="t" font-size="11" text-anchor="end">api</text>
<rect x="132" y="126" width="71" height="27" rx="3" fill="var(--full)" stroke="var(--grid)" stroke-width="0.5"/>
<text x="168" y="145" class="t" font-size="11" text-anchor="middle">2</text>
<rect x="206" y="126" width="71" height="27" rx="3" fill="var(--full)" stroke="var(--grid)" stroke-width="0.5"/>
<text x="242" y="145" class="t" font-size="11" text-anchor="middle">2</text>
<rect x="280" y="126" width="71" height="27" rx="3" fill="var(--empty)" stroke="var(--grid)" stroke-width="0.5"/>
<rect x="354" y="126" width="71" height="27" rx="3" fill="var(--empty)" stroke="var(--grid)" stroke-width="0.5"/>
<rect x="428" y="126" width="71" height="27" rx="3" fill="var(--full)" stroke="var(--grid)" stroke-width="0.5"/>
<text x="464" y="145" class="t" font-size="11" text-anchor="middle">3</text>
<rect x="502" y="126" width="71" height="27" rx="3" fill="var(--empty)" stroke="var(--grid)" stroke-width="0.5"/>
<rect x="576" y="126" width="71" height="27" rx="3" fill="var(--full)" stroke="var(--grid)" stroke-width="0.5"/>
<text x="612" y="145" class="t" font-size="11" text-anchor="middle">2</text>
<rect x="650" y="126" width="71" height="27" rx="3" fill="var(--empty)" stroke="var(--grid)" stroke-width="0.5"/>
<rect x="724" y="126" width="71" height="27" rx="3" fill="var(--full)" stroke="var(--grid)" stroke-width="0.5"/>
<text x="760" y="145" class="t" font-size="11" text-anchor="middle">1</text>
<rect x="798" y="126" width="71" height="27" rx="3" fill="var(--empty)" stroke="var(--grid)" stroke-width="0.5"/>
<rect x="872" y="126" width="71" height="27" rx="3" fill="var(--full)" stroke="var(--grid)" stroke-width="0.5"/>
<text x="908" y="145" class="t" font-size="11" text-anchor="middle">2</text>
<rect x="946" y="126" width="71" height="27" rx="3" fill="var(--part)" stroke="var(--grid)" stroke-width="0.5"/>
<text x="982" y="145" class="t" font-size="11" text-anchor="middle">7</text>
<rect x="1020" y="126" width="71" height="27" rx="3" fill="var(--part)" stroke="var(--grid)" stroke-width="0.5"/>
<text x="1056" y="145" class="t" font-size="11" text-anchor="middle">5</text>
<rect x="1094" y="126" width="71" height="27" rx="3" fill="var(--empty)" stroke="var(--grid)" stroke-width="0.5"/>
<text x="1174" y="145" class="n" font-size="11">24</text>
<text x="122" y="175" class="t" font-size="11" text-anchor="end">cloud-native</text>
<rect x="132" y="156" width="71" height="27" rx="3" fill="var(--empty)" stroke="var(--grid)" stroke-width="0.5"/>
<rect x="206" y="156" width="71" height="27" rx="3" fill="var(--empty)" stroke="var(--grid)" stroke-width="0.5"/>
<rect x="280" y="156" width="71" height="27" rx="3" fill="var(--empty)" stroke="var(--grid)" stroke-width="0.5"/>
<rect x="354" y="156" width="71" height="27" rx="3" fill="var(--some)" stroke="var(--grid)" stroke-width="0.5"/>
<text x="390" y="175" class="t" font-size="11" text-anchor="middle">1</text>
<rect x="428" y="156" width="71" height="27" rx="3" fill="var(--part)" stroke="var(--grid)" stroke-width="0.5"/>
<text x="464" y="175" class="t" font-size="11" text-anchor="middle">3</text>
<rect x="502" y="156" width="71" height="27" rx="3" fill="var(--some)" stroke="var(--grid)" stroke-width="0.5"/>
<text x="538" y="175" class="t" font-size="11" text-anchor="middle">1</text>
<rect x="576" y="156" width="71" height="27" rx="3" fill="var(--full)" stroke="var(--grid)" stroke-width="0.5"/>
<text x="612" y="175" class="t" font-size="11" text-anchor="middle">1</text>
<rect x="650" y="156" width="71" height="27" rx="3" fill="var(--empty)" stroke="var(--grid)" stroke-width="0.5"/>
<rect x="724" y="156" width="71" height="27" rx="3" fill="var(--full)" stroke="var(--grid)" stroke-width="0.5"/>
<text x="760" y="175" class="t" font-size="11" text-anchor="middle">1</text>
<rect x="798" y="156" width="71" height="27" rx="3" fill="var(--empty)" stroke="var(--grid)" stroke-width="0.5"/>
<rect x="872" y="156" width="71" height="27" rx="3" fill="var(--empty)" stroke="var(--grid)" stroke-width="0.5"/>
<rect x="946" y="156" width="71" height="27" rx="3" fill="var(--part)" stroke="var(--grid)" stroke-width="0.5"/>
<text x="982" y="175" class="t" font-size="11" text-anchor="middle">4</text>
<rect x="1020" y="156" width="71" height="27" rx="3" fill="var(--part)" stroke="var(--grid)" stroke-width="0.5"/>
<text x="1056" y="175" class="t" font-size="11" text-anchor="middle">2</text>
<rect x="1094" y="156" width="71" height="27" rx="3" fill="var(--some)" stroke="var(--grid)" stroke-width="0.5"/>
<text x="1130" y="175" class="t" font-size="11" text-anchor="middle">1</text>
<text x="1174" y="175" class="n" font-size="11">14</text>
<text x="122" y="205" class="t" font-size="11" text-anchor="end">ci-cd</text>
<rect x="132" y="186" width="71" height="27" rx="3" fill="var(--empty)" stroke="var(--grid)" stroke-width="0.5"/>
<rect x="206" y="186" width="71" height="27" rx="3" fill="var(--some)" stroke="var(--grid)" stroke-width="0.5"/>
<text x="242" y="205" class="t" font-size="11" text-anchor="middle">2</text>
<rect x="280" y="186" width="71" height="27" rx="3" fill="var(--part)" stroke="var(--grid)" stroke-width="0.5"/>
<text x="316" y="205" class="t" font-size="11" text-anchor="middle">2</text>
<rect x="354" y="186" width="71" height="27" rx="3" fill="var(--empty)" stroke="var(--grid)" stroke-width="0.5"/>
<rect x="428" y="186" width="71" height="27" rx="3" fill="var(--some)" stroke="var(--grid)" stroke-width="0.5"/>
<text x="464" y="205" class="t" font-size="11" text-anchor="middle">2</text>
<rect x="502" y="186" width="71" height="27" rx="3" fill="var(--full)" stroke="var(--grid)" stroke-width="0.5"/>
<text x="538" y="205" class="t" font-size="11" text-anchor="middle">1</text>
<rect x="576" y="186" width="71" height="27" rx="3" fill="var(--some)" stroke="var(--grid)" stroke-width="0.5"/>
<text x="612" y="205" class="t" font-size="11" text-anchor="middle">1</text>
<rect x="650" y="186" width="71" height="27" rx="3" fill="var(--full)" stroke="var(--grid)" stroke-width="0.5"/>
<text x="686" y="205" class="t" font-size="11" text-anchor="middle">1</text>
<rect x="724" y="186" width="71" height="27" rx="3" fill="var(--empty)" stroke="var(--grid)" stroke-width="0.5"/>
<rect x="798" y="186" width="71" height="27" rx="3" fill="var(--empty)" stroke="var(--grid)" stroke-width="0.5"/>
<rect x="872" y="186" width="71" height="27" rx="3" fill="var(--some)" stroke="var(--grid)" stroke-width="0.5"/>
<text x="908" y="205" class="t" font-size="11" text-anchor="middle">1</text>
<rect x="946" y="186" width="71" height="27" rx="3" fill="var(--part)" stroke="var(--grid)" stroke-width="0.5"/>
<text x="982" y="205" class="t" font-size="11" text-anchor="middle">7</text>
<rect x="1020" y="186" width="71" height="27" rx="3" fill="var(--part)" stroke="var(--grid)" stroke-width="0.5"/>
<text x="1056" y="205" class="t" font-size="11" text-anchor="middle">3</text>
<rect x="1094" y="186" width="71" height="27" rx="3" fill="var(--empty)" stroke="var(--grid)" stroke-width="0.5"/>
<text x="1174" y="205" class="n" font-size="11">20</text>
<text x="122" y="235" class="t" font-size="11" text-anchor="end">mobile</text>
<rect x="132" y="216" width="71" height="27" rx="3" fill="var(--some)" stroke="var(--grid)" stroke-width="0.5"/>
<text x="168" y="235" class="t" font-size="11" text-anchor="middle">2</text>
<rect x="206" y="216" width="71" height="27" rx="3" fill="var(--some)" stroke="var(--grid)" stroke-width="0.5"/>
<text x="242" y="235" class="t" font-size="11" text-anchor="middle">2</text>
<rect x="280" y="216" width="71" height="27" rx="3" fill="var(--empty)" stroke="var(--grid)" stroke-width="0.5"/>
<rect x="354" y="216" width="71" height="27" rx="3" fill="var(--empty)" stroke="var(--grid)" stroke-width="0.5"/>
<rect x="428" y="216" width="71" height="27" rx="3" fill="var(--some)" stroke="var(--grid)" stroke-width="0.5"/>
<text x="464" y="235" class="t" font-size="11" text-anchor="middle">1</text>
<rect x="502" y="216" width="71" height="27" rx="3" fill="var(--some)" stroke="var(--grid)" stroke-width="0.5"/>
<text x="538" y="235" class="t" font-size="11" text-anchor="middle">1</text>
<rect x="576" y="216" width="71" height="27" rx="3" fill="var(--some)" stroke="var(--grid)" stroke-width="0.5"/>
<text x="612" y="235" class="t" font-size="11" text-anchor="middle">2</text>
<rect x="650" y="216" width="71" height="27" rx="3" fill="var(--empty)" stroke="var(--grid)" stroke-width="0.5"/>
<rect x="724" y="216" width="71" height="27" rx="3" fill="var(--some)" stroke="var(--grid)" stroke-width="0.5"/>
<text x="760" y="235" class="t" font-size="11" text-anchor="middle">2</text>
<rect x="798" y="216" width="71" height="27" rx="3" fill="var(--empty)" stroke="var(--grid)" stroke-width="0.5"/>
<rect x="872" y="216" width="71" height="27" rx="3" fill="var(--empty)" stroke="var(--grid)" stroke-width="0.5"/>
<rect x="946" y="216" width="71" height="27" rx="3" fill="var(--some)" stroke="var(--grid)" stroke-width="0.5"/>
<text x="982" y="235" class="t" font-size="11" text-anchor="middle">9</text>
<rect x="1020" y="216" width="71" height="27" rx="3" fill="var(--some)" stroke="var(--grid)" stroke-width="0.5"/>
<text x="1056" y="235" class="t" font-size="11" text-anchor="middle">1</text>
<rect x="1094" y="216" width="71" height="27" rx="3" fill="var(--empty)" stroke="var(--grid)" stroke-width="0.5"/>
<text x="1174" y="235" class="n" font-size="11">20</text>
<text x="122" y="265" class="t" font-size="11" text-anchor="end">network</text>
<rect x="132" y="246" width="71" height="27" rx="3" fill="var(--some)" stroke="var(--grid)" stroke-width="0.5"/>
<text x="168" y="265" class="t" font-size="11" text-anchor="middle">2</text>
<rect x="206" y="246" width="71" height="27" rx="3" fill="var(--some)" stroke="var(--grid)" stroke-width="0.5"/>
<text x="242" y="265" class="t" font-size="11" text-anchor="middle">2</text>
<rect x="280" y="246" width="71" height="27" rx="3" fill="var(--empty)" stroke="var(--grid)" stroke-width="0.5"/>
<rect x="354" y="246" width="71" height="27" rx="3" fill="var(--empty)" stroke="var(--grid)" stroke-width="0.5"/>
<rect x="428" y="246" width="71" height="27" rx="3" fill="var(--empty)" stroke="var(--grid)" stroke-width="0.5"/>
<rect x="502" y="246" width="71" height="27" rx="3" fill="var(--empty)" stroke="var(--grid)" stroke-width="0.5"/>
<rect x="576" y="246" width="71" height="27" rx="3" fill="var(--some)" stroke="var(--grid)" stroke-width="0.5"/>
<text x="612" y="265" class="t" font-size="11" text-anchor="middle">1</text>
<rect x="650" y="246" width="71" height="27" rx="3" fill="var(--some)" stroke="var(--grid)" stroke-width="0.5"/>
<text x="686" y="265" class="t" font-size="11" text-anchor="middle">1</text>
<rect x="724" y="246" width="71" height="27" rx="3" fill="var(--empty)" stroke="var(--grid)" stroke-width="0.5"/>
<rect x="798" y="246" width="71" height="27" rx="3" fill="var(--some)" stroke="var(--grid)" stroke-width="0.5"/>
<text x="834" y="265" class="t" font-size="11" text-anchor="middle">1</text>
<rect x="872" y="246" width="71" height="27" rx="3" fill="var(--empty)" stroke="var(--grid)" stroke-width="0.5"/>
<rect x="946" y="246" width="71" height="27" rx="3" fill="var(--some)" stroke="var(--grid)" stroke-width="0.5"/>
<text x="982" y="265" class="t" font-size="11" text-anchor="middle">4</text>
<rect x="1020" y="246" width="71" height="27" rx="3" fill="var(--some)" stroke="var(--grid)" stroke-width="0.5"/>
<text x="1056" y="265" class="t" font-size="11" text-anchor="middle">3</text>
<rect x="1094" y="246" width="71" height="27" rx="3" fill="var(--empty)" stroke="var(--grid)" stroke-width="0.5"/>
<text x="1174" y="265" class="n" font-size="11">14</text>
<text x="122" y="295" class="t" font-size="11" text-anchor="end">llm-ai</text>
<rect x="132" y="276" width="71" height="27" rx="3" fill="var(--empty)" stroke="var(--grid)" stroke-width="0.5"/>
<rect x="206" y="276" width="71" height="27" rx="3" fill="var(--full)" stroke="var(--grid)" stroke-width="0.5"/>
<text x="242" y="295" class="t" font-size="11" text-anchor="middle">3</text>
<rect x="280" y="276" width="71" height="27" rx="3" fill="var(--full)" stroke="var(--grid)" stroke-width="0.5"/>
<text x="316" y="295" class="t" font-size="11" text-anchor="middle">1</text>
<rect x="354" y="276" width="71" height="27" rx="3" fill="var(--empty)" stroke="var(--grid)" stroke-width="0.5"/>
<rect x="428" y="276" width="71" height="27" rx="3" fill="var(--full)" stroke="var(--grid)" stroke-width="0.5"/>
<text x="464" y="295" class="t" font-size="11" text-anchor="middle">1</text>
<rect x="502" y="276" width="71" height="27" rx="3" fill="var(--empty)" stroke="var(--grid)" stroke-width="0.5"/>
<rect x="576" y="276" width="71" height="27" rx="3" fill="var(--full)" stroke="var(--grid)" stroke-width="0.5"/>
<text x="612" y="295" class="t" font-size="11" text-anchor="middle">1</text>
<rect x="650" y="276" width="71" height="27" rx="3" fill="var(--empty)" stroke="var(--grid)" stroke-width="0.5"/>
<rect x="724" y="276" width="71" height="27" rx="3" fill="var(--full)" stroke="var(--grid)" stroke-width="0.5"/>
<text x="760" y="295" class="t" font-size="11" text-anchor="middle">2</text>
<rect x="798" y="276" width="71" height="27" rx="3" fill="var(--empty)" stroke="var(--grid)" stroke-width="0.5"/>
<rect x="872" y="276" width="71" height="27" rx="3" fill="var(--full)" stroke="var(--grid)" stroke-width="0.5"/>
<text x="908" y="295" class="t" font-size="11" text-anchor="middle">2</text>
<rect x="946" y="276" width="71" height="27" rx="3" fill="var(--full)" stroke="var(--grid)" stroke-width="0.5"/>
<text x="982" y="295" class="t" font-size="11" text-anchor="middle">9</text>
<rect x="1020" y="276" width="71" height="27" rx="3" fill="var(--full)" stroke="var(--grid)" stroke-width="0.5"/>
<text x="1056" y="295" class="t" font-size="11" text-anchor="middle">1</text>
<rect x="1094" y="276" width="71" height="27" rx="3" fill="var(--empty)" stroke="var(--grid)" stroke-width="0.5"/>
<text x="1174" y="295" class="n" font-size="11">20</text>
<rect x="132" y="314" width="12" height="12" rx="2" fill="var(--empty)" stroke="var(--grid)" stroke-width="0.5"/>
<text x="149" y="324" class="m" font-size="10">empty</text>
<rect x="196" y="314" width="12" height="12" rx="2" fill="var(--some)" stroke="var(--grid)" stroke-width="0.5"/>
<text x="213" y="324" class="m" font-size="10">some</text>
<rect x="254" y="314" width="12" height="12" rx="2" fill="var(--part)" stroke="var(--grid)" stroke-width="0.5"/>
<text x="271" y="324" class="m" font-size="10">partial</text>
<rect x="330" y="314" width="12" height="12" rx="2" fill="var(--full)" stroke="var(--grid)" stroke-width="0.5"/>
<text x="347" y="324" class="m" font-size="10">all validated</text>
</svg>
